<svg xmlns="http://www.w3.org/2000/svg" width="50.004" height="50.004" viewBox="0 0 1080 1080">
  <defs>
    <style>
      .cls-1 {
        fill: #fff;
        stroke: #fff;
        stroke-width: 0;
        fill-rule: evenodd;
      }
    </style>
  </defs>
  <path class="cls-1" d="M236.432,432.339s29-35.244,60.033-49.592c1.1-1.364-1.3-82.219-1.3-82.219H584.884c137.613,6.625,183.243,103.053,208.928,153.39,0,0,65.121,213.136-129.319,302.077-1.805,3.171-56.21,23.413-75.693,24.8s-63.948,0-63.948,0l-1.306,57.423s76.174-.535,92.66-2.61,184.37-30.858,233.607-221.861c0.555-13.262,65.9-150.645-100.49-305.385-17.826-14.678-88.934-63.34-169.659-65.253-4.394-.953-343.232-2.61-343.232-2.61V432.339Z"/>
  <path class="cls-1" d="M627.952,617.658l58.728,2.61s2.279-170.314-167.049-212.725c-6.484-.091-182.385-63.282-277.348,143.761-4.8,19.814-40.245,198.069,137.706,271.25,18.639,9.524,74.389,16.965,74.389,16.965l1.305-58.728S250.777,754.74,305.6,565.456c4.222-7.12,45.588-115.829,167.048-107.016,6.457,4.214,121.364-2.175,152.693,134.422C628.149,597.9,627.952,617.658,627.952,617.658Z"/>
  <path class="cls-1" d="M237.737,806.893s29.049,29.824,32.627,30.016-32.627,2.61-32.627,2.61l-1.305-32.626"/>
</svg>
